ffmpeg started on 2025-06-16 at 16:44:56
Report written to "D:\Convert\FFMetrics\reports\ssim_report-6.txt"
Log level: 32
Command line:
ffmpeg -hide_banner -nostdin -i "G:\\\xc0\xed\xe8\xec\xe5\\[\xd2\xee\xef]\\\xd0\xfb\xf6\xe0\xf0\xfc-\xe2\xe0\xec\xef\xe8\xf0\\\xd2\xc2-2\\[JamClub] Vampire Knight Guilty - 01_HEVC.mkv" -i "G:\\\xc0\xed\xe8\xec\xe5\\[\xd2\xee\xef]\\\xd0\xfb\xf6\xe0\xf0\xfc-\xe2\xe0\xec\xef\xe8\xf0\\\xd2\xc2-2\\[JamClub] Vampire Knight Guilty - 01.mp4" -lavfi "[0:v]settb=AVTB,setpts=PTS-STARTPTS,format=pix_fmts=yuv420p10,fps=24000/1001,scale=1920:1080:flags=bicubic[main];[1:v]settb=AVTB,setpts=PTS-STARTPTS,format=pix_fmts=yuv420p,fps=24000/1001,scale=1920:1080:flags=bicubic[ref];[main][ref]ssim=eof_action=endall:stats_file='D\\:/Convert/FFMetrics/logs/ssim_logfile-6.txt'" -f null -
Input #0, matroska,webm, from 'G:\Аниме\[Топ]\Рыцарь-вампир\ТВ-2\[JamClub] Vampire Knight Guilty - 01_HEVC.mkv':
  Metadata:
    COMPATIBLE_BRANDS: isomiso2avc1mp41
    MAJOR_BRAND     : isom
    MINOR_VERSION   : 512
    ENCODER         : Lavf61.7.100
  Duration: 00:24:23.33, start: -0.001000, bitrate: 1119 kb/s
  Stream #0:0: Video: hevc (Main 10), yuv420p10le(tv, bt709, progressive), 1920x1080 [SAR 1:1 DAR 16:9], 23.98 fps, 23.98 tbr, 1k tbn (default)
      Metadata:
        HANDLER_NAME    : VideoHandler
        VENDOR_ID       : [0][0][0][0]
        ENCODER         : Lavc61.19.100 libx265
        BPS             : 921108
        DURATION        : 00:24:23.253708333
        NUMBER_OF_FRAMES: 43721
        NUMBER_OF_BYTES : 168476831
        _STATISTICS_WRITING_APP: mkvpropedit v66.0.0 ('Josie') 64-bit
        _STATISTICS_WRITING_DATE_UTC: 2025-06-16 10:01:37
        _STATISTICS_TAGS: BPS DURATION NUMBER_OF_FRAMES NUMBER_OF_BYTES
  Stream #0:1(eng): Audio: aac (LC), 48000 Hz, stereo, fltp (default)
      Metadata:
        HANDLER_NAME    : SoundHandler
        VENDOR_ID       : [0][0][0][0]
        ENCODER         : Lavc61.19.100 aac
        BPS             : 194183
        DURATION        : 00:24:23.290000000
        NUMBER_OF_FRAMES: 68593
        NUMBER_OF_BYTES : 35518425
        _STATISTICS_WRITING_APP: mkvpropedit v66.0.0 ('Josie') 64-bit
        _STATISTICS_WRITING_DATE_UTC: 2025-06-16 10:01:37
        _STATISTICS_TAGS: BPS DURATION NUMBER_OF_FRAMES NUMBER_OF_BYTES
Input #1, mov,mp4,m4a,3gp,3g2,mj2, from 'G:\Аниме\[Топ]\Рыцарь-вампир\ТВ-2\[JamClub] Vampire Knight Guilty - 01.mp4':
  Metadata:
    major_brand     : isom
    minor_version   : 512
    compatible_brands: isomiso2avc1mp41
    encoder         : Lavf60.16.100
  Duration: 00:24:23.31, start: 0.000000, bitrate: 3948 kb/s
  Stream #1:0[0x1](und): Video: h264 (High) (avc1 / 0x31637661), yuv420p(progressive), 1920x1080 [SAR 1:1 DAR 16:9], 3747 kb/s, 29.88 fps, 23.98 tbr, 90k tbn (default)
      Metadata:
        handler_name    : VideoHandler
        vendor_id       : [0][0][0][0]
  Stream #1:1[0x2](eng): Audio: aac (LC) (mp4a / 0x6134706D), 48000 Hz, stereo, fltp, 191 kb/s (default)
      Metadata:
        handler_name    : SoundHandler
        vendor_id       : [0][0][0][0]
Stream mapping:
  Stream #0:0 (hevc) -> settb:default
  Stream #1:0 (h264) -> settb:default
  ssim:default -> Stream #0:0 (wrapped_avframe)
  Stream #0:1 -> #0:1 (aac (native) -> pcm_s16le (native))
Output #0, null, to 'pipe:':
  Metadata:
    COMPATIBLE_BRANDS: isomiso2avc1mp41
    MAJOR_BRAND     : isom
    MINOR_VERSION   : 512
    encoder         : Lavf61.7.100
  Stream #0:0: Video: wrapped_avframe, yuv420p10le(tv, bt709, progressive), 1920x1080 [SAR 1:1 DAR 16:9], q=2-31, 200 kb/s, 23.98 fps, 23.98 tbn
      Metadata:
        encoder         : Lavc61.19.100 wrapped_avframe
  Stream #0:1(eng): Audio: pcm_s16le, 48000 Hz, stereo, s16, 1536 kb/s (default)
      Metadata:
        HANDLER_NAME    : SoundHandler
        VENDOR_ID       : [0][0][0][0]
        _STATISTICS_TAGS: BPS DURATION NUMBER_OF_FRAMES NUMBER_OF_BYTES
        BPS             : 194183
        DURATION        : 00:24:23.290000000
        NUMBER_OF_FRAMES: 68593
        NUMBER_OF_BYTES : 35518425
        _STATISTICS_WRITING_APP: mkvpropedit v66.0.0 ('Josie') 64-bit
        _STATISTICS_WRITING_DATE_UTC: 2025-06-16 10:01:37
        encoder         : Lavc61.19.100 pcm_s16le
frame=  110 fps=0.0 q=-0.0 size=N/A time=00:00:04.58 bitrate=N/A speed= 8.9x    frame=  268 fps=262 q=-0.0 size=N/A time=00:00:11.17 bitrate=N/A speed=10.9x    frame=  462 fps=298 q=-0.0 size=N/A time=00:00:19.26 bitrate=N/A speed=12.4x    frame=  687 fps=333 q=-0.0 size=N/A time=00:00:28.65 bitrate=N/A speed=13.9x    frame=  899 fps=348 q=-0.0 size=N/A time=00:00:37.49 bitrate=N/A speed=14.5x    frame= 1121 fps=362 q=-0.0 size=N/A time=00:00:46.75 bitrate=N/A speed=15.1x    frame= 1351 fps=375 q=-0.0 size=N/A time=00:00:56.34 bitrate=N/A speed=15.6x    frame= 1546 fps=374 q=-0.0 size=N/A time=00:01:04.48 bitrate=N/A speed=15.6x    frame= 1761 fps=379 q=-0.0 size=N/A time=00:01:13.44 bitrate=N/A speed=15.8x    frame= 1981 fps=385 q=-0.0 size=N/A time=00:01:22.62 bitrate=N/A speed=  16x    frame= 2182 fps=385 q=-0.0 size=N/A time=00:01:31.00 bitrate=N/A speed=  16x    frame= 2388 fps=386 q=-0.0 size=N/A time=00:01:39.59 bitrate=N/A speed=16.1x    frame= 2602 fps=389 q=-0.0 size=N/A time=00:01:48.52 bitrate=N/A speed=16.2x    frame= 2822 fps=391 q=-0.0 size=N/A time=00:01:57.70 bitrate=N/A speed=16.3x    frame= 3023 fps=391 q=-0.0 size=N/A time=00:02:06.08 bitrate=N/A speed=16.3x    frame= 3237 fps=392 q=-0.0 size=N/A time=00:02:15.00 bitrate=N/A speed=16.4x    frame= 3460 fps=395 q=-0.0 size=N/A time=00:02:24.31 bitrate=N/A speed=16.5x    frame= 3681 fps=397 q=-0.0 size=N/A time=00:02:33.52 bitrate=N/A speed=16.6x    frame= 3891 fps=397 q=-0.0 size=N/A time=00:02:42.28 bitrate=N/A speed=16.6x    frame= 4104 fps=398 q=-0.0 size=N/A time=00:02:51.17 bitrate=N/A speed=16.6x    frame= 4290 fps=396 q=-0.0 size=N/A time=00:02:58.92 bitrate=N/A speed=16.5x    frame= 4506 fps=397 q=-0.0 size=N/A time=00:03:07.93 bitrate=N/A speed=16.6x    frame= 4694 fps=396 q=-0.0 size=N/A time=00:03:15.77 bitrate=N/A speed=16.5x    frame= 4863 fps=393 q=-0.0 size=N/A time=00:03:22.82 bitrate=N/A speed=16.4x    frame= 5052 fps=392 q=-0.0 size=N/A time=00:03:30.71 bitrate=N/A speed=16.3x    frame= 5226 fps=390 q=-0.0 size=N/A time=00:03:37.96 bitrate=N/A speed=16.3x    frame= 5443 fps=391 q=-0.0 size=N/A time=00:03:47.01 bitrate=N/A speed=16.3x    frame= 5640 fps=391 q=-0.0 size=N/A time=00:03:55.23 bitrate=N/A speed=16.3x    frame= 5833 fps=390 q=-0.0 size=N/A time=00:04:03.28 bitrate=N/A speed=16.3x    frame= 5983 fps=387 q=-0.0 size=N/A time=00:04:09.54 bitrate=N/A speed=16.1x    frame= 6191 fps=387 q=-0.0 size=N/A time=00:04:18.21 bitrate=N/A speed=16.2x    frame= 6396 fps=388 q=-0.0 size=N/A time=00:04:26.76 bitrate=N/A speed=16.2x    frame= 6594 fps=388 q=-0.0 size=N/A time=00:04:35.02 bitrate=N/A speed=16.2x    frame= 6801 fps=388 q=-0.0 size=N/A time=00:04:43.65 bitrate=N/A speed=16.2x    frame= 7030 fps=390 q=-0.0 size=N/A time=00:04:53.20 bitrate=N/A speed=16.2x    frame= 7222 fps=389 q=-0.0 size=N/A time=00:05:01.21 bitrate=N/A speed=16.2x    frame= 7429 fps=389 q=-0.0 size=N/A time=00:05:09.85 bitrate=N/A speed=16.2x    frame= 7617 fps=389 q=-0.0 size=N/A time=00:05:17.69 bitrate=N/A speed=16.2x    frame= 7811 fps=389 q=-0.0 size=N/A time=00:05:25.78 bitrate=N/A speed=16.2x    frame= 8045 fps=390 q=-0.0 size=N/A time=00:05:35.54 bitrate=N/A speed=16.3x    frame= 8267 fps=391 q=-0.0 size=N/A time=00:05:44.80 bitrate=N/A speed=16.3x    frame= 8480 fps=391 q=-0.0 size=N/A time=00:05:53.68 bitrate=N/A speed=16.3x    frame= 8664 fps=391 q=-0.0 size=N/A time=00:06:01.36 bitrate=N/A speed=16.3x    frame= 8849 fps=390 q=-0.0 size=N/A time=00:06:09.07 bitrate=N/A speed=16.3x    frame= 9047 fps=390 q=-0.0 size=N/A time=00:06:17.33 bitrate=N/A speed=16.3x    frame= 9234 fps=389 q=-0.0 size=N/A time=00:06:25.13 bitrate=N/A speed=16.2x    frame= 9462 fps=391 q=-0.0 size=N/A time=00:06:34.64 bitrate=N/A speed=16.3x    frame= 9676 fps=391 q=-0.0 size=N/A time=00:06:43.56 bitrate=N/A speed=16.3x    frame= 9879 fps=391 q=-0.0 size=N/A time=00:06:52.03 bitrate=N/A speed=16.3x    frame=10089 fps=391 q=-0.0 size=N/A time=00:07:00.79 bitrate=N/A speed=16.3x    frame=10285 fps=391 q=-0.0 size=N/A time=00:07:08.97 bitrate=N/A speed=16.3x    frame=10495 fps=391 q=-0.0 size=N/A time=00:07:17.72 bitrate=N/A speed=16.3x    frame=10700 fps=391 q=-0.0 size=N/A time=00:07:26.27 bitrate=N/A speed=16.3x    frame=10912 fps=392 q=-0.0 size=N/A time=00:07:35.12 bitrate=N/A speed=16.3x    frame=11106 fps=392 q=-0.0 size=N/A time=00:07:43.21 bitrate=N/A speed=16.3x    frame=11298 fps=391 q=-0.0 size=N/A time=00:07:51.22 bitrate=N/A speed=16.3x    frame=11504 fps=391 q=-0.0 size=N/A time=00:07:59.81 bitrate=N/A speed=16.3x    frame=11707 fps=391 q=-0.0 size=N/A time=00:08:08.27 bitrate=N/A speed=16.3x    frame=11930 fps=392 q=-0.0 size=N/A time=00:08:17.58 bitrate=N/A speed=16.3x    frame=12112 fps=391 q=-0.0 size=N/A time=00:08:25.21 bitrate=N/A speed=16.3x    frame=12325 fps=392 q=-0.0 size=N/A time=00:08:34.05 bitrate=N/A speed=16.3x    frame=12524 fps=392 q=-0.0 size=N/A time=00:08:42.35 bitrate=N/A speed=16.3x    frame=12750 fps=392 q=-0.0 size=N/A time=00:08:51.78 bitrate=N/A speed=16.4x    frame=12971 fps=393 q=-0.0 size=N/A time=00:09:00.99 bitrate=N/A speed=16.4x    frame=13210 fps=394 q=-0.0 size=N/A time=00:09:10.96 bitrate=N/A speed=16.4x    frame=13433 fps=395 q=-0.0 size=N/A time=00:09:20.26 bitrate=N/A speed=16.5x    frame=13642 fps=395 q=-0.0 size=N/A time=00:09:28.98 bitrate=N/A speed=16.5x    frame=13847 fps=395 q=-0.0 size=N/A time=00:09:37.53 bitrate=N/A speed=16.5x    frame=14068 fps=395 q=-0.0 size=N/A time=00:09:46.75 bitrate=N/A speed=16.5x    frame=14259 fps=395 q=-0.0 size=N/A time=00:09:54.71 bitrate=N/A speed=16.5x    frame=14472 fps=395 q=-0.0 size=N/A time=00:10:03.60 bitrate=N/A speed=16.5x    frame=14685 fps=395 q=-0.0 size=N/A time=00:10:12.48 bitrate=N/A speed=16.5x    frame=14886 fps=395 q=-0.0 size=N/A time=00:10:20.87 bitrate=N/A speed=16.5x    frame=15101 fps=396 q=-0.0 size=N/A time=00:10:29.83 bitrate=N/A speed=16.5x    frame=15333 fps=396 q=-0.0 size=N/A time=00:10:39.51 bitrate=N/A speed=16.5x    frame=15553 fps=397 q=-0.0 size=N/A time=00:10:48.68 bitrate=N/A speed=16.5x    frame=15757 fps=397 q=-0.0 size=N/A time=00:10:57.19 bitrate=N/A speed=16.5x    frame=15967 fps=397 q=-0.0 size=N/A time=00:11:05.95 bitrate=N/A speed=16.5x    frame=16169 fps=397 q=-0.0 size=N/A time=00:11:14.38 bitrate=N/A speed=16.5x    frame=16393 fps=397 q=-0.0 size=N/A time=00:11:23.72 bitrate=N/A speed=16.6x    frame=16622 fps=398 q=-0.0 size=N/A time=00:11:33.27 bitrate=N/A speed=16.6x    frame=16829 fps=398 q=-0.0 size=N/A time=00:11:41.90 bitrate=N/A speed=16.6x    frame=17058 fps=398 q=-0.0 size=N/A time=00:11:51.46 bitrate=N/A speed=16.6x    frame=17268 fps=398 q=-0.0 size=N/A time=00:12:00.21 bitrate=N/A speed=16.6x    frame=17471 fps=398 q=-0.0 size=N/A time=00:12:08.68 bitrate=N/A speed=16.6x    frame=17677 fps=398 q=-0.0 size=N/A time=00:12:17.27 bitrate=N/A speed=16.6x    frame=17908 fps=399 q=-0.0 size=N/A time=00:12:26.91 bitrate=N/A speed=16.6x    frame=18114 fps=399 q=-0.0 size=N/A time=00:12:35.50 bitrate=N/A speed=16.6x    frame=18325 fps=399 q=-0.0 size=N/A time=00:12:44.30 bitrate=N/A speed=16.6x    frame=18537 fps=399 q=-0.0 size=N/A time=00:12:53.14 bitrate=N/A speed=16.6x    frame=18753 fps=399 q=-0.0 size=N/A time=00:13:02.15 bitrate=N/A speed=16.6x    frame=18961 fps=399 q=-0.0 size=N/A time=00:13:10.83 bitrate=N/A speed=16.6x    frame=19191 fps=400 q=-0.0 size=N/A time=00:13:20.42 bitrate=N/A speed=16.7x    frame=19375 fps=399 q=-0.0 size=N/A time=00:13:28.09 bitrate=N/A speed=16.7x    frame=19610 fps=400 q=-0.0 size=N/A time=00:13:37.90 bitrate=N/A speed=16.7x    frame=19840 fps=400 q=-0.0 size=N/A time=00:13:47.49 bitrate=N/A speed=16.7x    frame=20057 fps=400 q=-0.0 size=N/A time=00:13:56.54 bitrate=N/A speed=16.7x    frame=20258 fps=400 q=-0.0 size=N/A time=00:14:04.92 bitrate=N/A speed=16.7x    frame=20465 fps=400 q=-0.0 size=N/A time=00:14:13.56 bitrate=N/A speed=16.7x    frame=20674 fps=400 q=-0.0 size=N/A time=00:14:22.27 bitrate=N/A speed=16.7x    frame=20886 fps=400 q=-0.0 size=N/A time=00:14:31.12 bitrate=N/A speed=16.7x    frame=21109 fps=401 q=-0.0 size=N/A time=00:14:40.42 bitrate=N/A speed=16.7x    frame=21312 fps=401 q=-0.0 size=N/A time=00:14:48.88 bitrate=N/A speed=16.7x    frame=21532 fps=401 q=-0.0 size=N/A time=00:14:58.06 bitrate=N/A speed=16.7x    frame=21750 fps=401 q=-0.0 size=N/A time=00:15:07.15 bitrate=N/A speed=16.7x    frame=21957 fps=401 q=-0.0 size=N/A time=00:15:15.78 bitrate=N/A speed=16.7x    frame=22191 fps=402 q=-0.0 size=N/A time=00:15:25.54 bitrate=N/A speed=16.8x    frame=22397 fps=402 q=-0.0 size=N/A time=00:15:34.14 bitrate=N/A speed=16.8x    frame=22605 fps=402 q=-0.0 size=N/A time=00:15:42.81 bitrate=N/A speed=16.8x    frame=22831 fps=402 q=-0.0 size=N/A time=00:15:52.24 bitrate=N/A speed=16.8x    frame=23072 fps=403 q=-0.0 size=N/A time=00:16:02.29 bitrate=N/A speed=16.8x    frame=23285 fps=403 q=-0.0 size=N/A time=00:16:11.17 bitrate=N/A speed=16.8x    frame=23521 fps=403 q=-0.0 size=N/A time=00:16:21.02 bitrate=N/A speed=16.8x    frame=23748 fps=403 q=-0.0 size=N/A time=00:16:30.48 bitrate=N/A speed=16.8x    frame=23957 fps=403 q=-0.0 size=N/A time=00:16:39.20 bitrate=N/A speed=16.8x    frame=24175 fps=404 q=-0.0 size=N/A time=00:16:48.29 bitrate=N/A speed=16.8x    frame=24385 fps=404 q=-0.0 size=N/A time=00:16:57.05 bitrate=N/A speed=16.8x    frame=24611 fps=404 q=-0.0 size=N/A time=00:17:06.48 bitrate=N/A speed=16.8x    frame=24850 fps=404 q=-0.0 size=N/A time=00:17:16.45 bitrate=N/A speed=16.9x    frame=25072 fps=405 q=-0.0 size=N/A time=00:17:25.71 bitrate=N/A speed=16.9x    frame=25298 fps=405 q=-0.0 size=N/A time=00:17:35.13 bitrate=N/A speed=16.9x    frame=25528 fps=405 q=-0.0 size=N/A time=00:17:44.73 bitrate=N/A speed=16.9x    frame=25738 fps=405 q=-0.0 size=N/A time=00:17:53.48 bitrate=N/A speed=16.9x    frame=25952 fps=405 q=-0.0 size=N/A time=00:18:02.41 bitrate=N/A speed=16.9x    frame=26189 fps=406 q=-0.0 size=N/A time=00:18:12.29 bitrate=N/A speed=16.9x    frame=26417 fps=406 q=-0.0 size=N/A time=00:18:21.80 bitrate=N/A speed=16.9x    frame=26640 fps=406 q=-0.0 size=N/A time=00:18:31.11 bitrate=N/A speed=16.9x    frame=26851 fps=406 q=-0.0 size=N/A time=00:18:39.91 bitrate=N/A speed=16.9x    frame=27066 fps=406 q=-0.0 size=N/A time=00:18:48.87 bitrate=N/A speed=  17x    frame=27293 fps=407 q=-0.0 size=N/A time=00:18:58.34 bitrate=N/A speed=  17x    frame=27517 fps=407 q=-0.0 size=N/A time=00:19:07.68 bitrate=N/A speed=  17x    frame=27721 fps=407 q=-0.0 size=N/A time=00:19:16.19 bitrate=N/A speed=  17x    frame=27920 fps=407 q=-0.0 size=N/A time=00:19:24.49 bitrate=N/A speed=  17x    frame=28137 fps=407 q=-0.0 size=N/A time=00:19:33.54 bitrate=N/A speed=  17x    frame=28368 fps=407 q=-0.0 size=N/A time=00:19:43.18 bitrate=N/A speed=  17x    frame=28590 fps=407 q=-0.0 size=N/A time=00:19:52.44 bitrate=N/A speed=  17x    frame=28813 fps=407 q=-0.0 size=N/A time=00:20:01.74 bitrate=N/A speed=  17x    frame=29063 fps=408 q=-0.0 size=N/A time=00:20:12.16 bitrate=N/A speed=  17x    frame=29285 fps=408 q=-0.0 size=N/A time=00:20:21.42 bitrate=N/A speed=  17x    frame=29502 fps=408 q=-0.0 size=N/A time=00:20:30.47 bitrate=N/A speed=  17x    frame=29751 fps=409 q=-0.0 size=N/A time=00:20:40.86 bitrate=N/A speed=  17x    frame=29975 fps=409 q=-0.0 size=N/A time=00:20:50.20 bitrate=N/A speed=17.1x    frame=30212 fps=409 q=-0.0 size=N/A time=00:21:00.09 bitrate=N/A speed=17.1x    frame=30446 fps=409 q=-0.0 size=N/A time=00:21:09.85 bitrate=N/A speed=17.1x    frame=30663 fps=410 q=-0.0 size=N/A time=00:21:18.90 bitrate=N/A speed=17.1x    frame=30890 fps=410 q=-0.0 size=N/A time=00:21:28.37 bitrate=N/A speed=17.1x    frame=31124 fps=410 q=-0.0 size=N/A time=00:21:38.13 bitrate=N/A speed=17.1x    frame=31341 fps=410 q=-0.0 size=N/A time=00:21:47.18 bitrate=N/A speed=17.1x    frame=31557 fps=410 q=-0.0 size=N/A time=00:21:56.18 bitrate=N/A speed=17.1x    frame=31757 fps=410 q=-0.0 size=N/A time=00:22:04.53 bitrate=N/A speed=17.1x    frame=31941 fps=410 q=-0.0 size=N/A time=00:22:12.20 bitrate=N/A speed=17.1x    frame=32151 fps=410 q=-0.0 size=N/A time=00:22:20.96 bitrate=N/A speed=17.1x    frame=32365 fps=410 q=-0.0 size=N/A time=00:22:29.89 bitrate=N/A speed=17.1x    frame=32597 fps=410 q=-0.0 size=N/A time=00:22:39.56 bitrate=N/A speed=17.1x    frame=32822 fps=410 q=-0.0 size=N/A time=00:22:48.95 bitrate=N/A speed=17.1x    frame=33032 fps=410 q=-0.0 size=N/A time=00:22:57.70 bitrate=N/A speed=17.1x    frame=33233 fps=410 q=-0.0 size=N/A time=00:23:06.09 bitrate=N/A speed=17.1x    frame=33429 fps=410 q=-0.0 size=N/A time=00:23:14.26 bitrate=N/A speed=17.1x    frame=33631 fps=410 q=-0.0 size=N/A time=00:23:22.69 bitrate=N/A speed=17.1x    frame=33840 fps=410 q=-0.0 size=N/A time=00:23:31.41 bitrate=N/A speed=17.1x    frame=34045 fps=410 q=-0.0 size=N/A time=00:23:39.96 bitrate=N/A speed=17.1x    frame=34264 fps=410 q=-0.0 size=N/A time=00:23:49.09 bitrate=N/A speed=17.1x    frame=34480 fps=410 q=-0.0 size=N/A time=00:23:58.10 bitrate=N/A speed=17.1x    frame=34668 fps=410 q=-0.0 size=N/A time=00:24:05.94 bitrate=N/A speed=17.1x    frame=34861 fps=409 q=-0.0 size=N/A time=00:24:13.99 bitrate=N/A speed=17.1x    [Parsed_ssim_10 @ 00000237ff5d8080] SSIM Y:0.994801 (22.840791) U:0.995155 (23.146969) V:0.995585 (23.550945) All:0.994991 (23.002216)
[out#0/null @ 00000237f34f40c0] video:15075KiB audio:274372KiB subtitle:0KiB other streams:0KiB global headers:0KiB muxing overhead: unknown
frame=35083 fps=410 q=-0.0 Lsize=N/A time=00:24:23.25 bitrate=N/A speed=17.1x    
